<svg width="512" height="512" viewBox="0 0 512 512" style="color:currentColor" xmlns="http://www.w3.org/2000/svg" class="h-full w-full"><rect width="512" height="512" x="0" y="0" rx="30" fill="transparent" stroke="transparent" stroke-width="0" stroke-opacity="100%" paint-order="stroke"></rect><svg width="512px" height="512px" viewBox="0 0 1024 1024" fill="currentColor" x="0" y="0" role="img" style="display:inline-block;vertical-align:middle" xmlns="http://www.w3.org/2000/svg"><g fill="currentColor"><path fill="currentColor" d="M704 446H320c-4.4 0-8 3.6-8 8v402c0 4.4 3.6 8 8 8h384c4.4 0 8-3.6 8-8V454c0-4.4-3.6-8-8-8zm-328 64h272v117H376V510zm272 290H376V683h272v117z"/><path fill="currentColor" d="M424 748a32 32 0 1 0 64 0a32 32 0 1 0-64 0zm0-178a32 32 0 1 0 64 0a32 32 0 1 0-64 0z"/><path fill="currentColor" d="M811.4 368.9C765.6 248 648.9 162 512.2 162S258.8 247.9 213 368.8C126.9 391.5 63.5 470.2 64 563.6C64.6 668 145.6 752.9 247.6 762c4.7.4 8.7-3.3 8.7-8v-60.4c0-4-3-7.4-7-7.9c-27-3.4-52.5-15.2-72.1-34.5c-24-23.5-37.2-55.1-37.2-88.6c0-28 9.1-54.4 26.2-76.4c16.7-21.4 40.2-36.9 66.1-43.7l37.9-10l13.9-36.7c8.6-22.8 20.6-44.2 35.7-63.5c14.9-19.2 32.6-36 52.4-50c41.1-28.9 89.5-44.2 140-44.2s98.9 15.3 140 44.3c19.9 14 37.5 30.8 52.4 50c15.1 19.3 27.1 40.7 35.7 63.5l13.8 36.6l37.8 10c54.2 14.4 92.1 63.7 92.1 120c0 33.6-13.2 65.1-37.2 88.6c-19.5 19.2-44.9 31.1-71.9 34.5c-4 .5-6.9 3.9-6.9 7.9V754c0 4.7 4.1 8.4 8.8 8c101.7-9.2 182.5-94 183.2-198.2c.6-93.4-62.7-172.1-148.6-194.9z"/></g></svg></svg>